<?xml version="1.0" encoding="UTF-8" standalone="no"?>
<svg
   width="251.939"
   height="42"
   viewBox="0 0 251.939 42"
   fill="none"
   version="1.1"
   id="svg1"
   sodipodi:docname="bytsolv-logo.svg"
   inkscape:export-filename="../bytsolv-logo.svg"
   inkscape:export-xdpi="96"
   inkscape:export-ydpi="96"
   xmlns:inkscape="http://www.inkscape.org/namespaces/inkscape"
   xmlns:sodipodi="http://sodipodi.sourceforge.net/DTD/sodipodi-0.dtd"
   xmlns="http://www.w3.org/2000/svg"
   xmlns:svg="http://www.w3.org/2000/svg">
  <defs
     id="defs1" />
  <sodipodi:namedview
     id="namedview1"
     pagecolor="#ffffff"
     bordercolor="#000000"
     borderopacity="0.25"
     inkscape:showpageshadow="2"
     inkscape:pageopacity="0.0"
     inkscape:pagecheckerboard="0"
     inkscape:deskcolor="#d1d1d1">
    <inkscape:page
       x="0"
       y="0"
       width="251.939"
       height="42"
       id="page2"
       margin="0"
       bleed="0" />
  </sodipodi:namedview>
  <rect
     style="fill:#000000;stroke-width:0"
     id="rect1"
     width="251.939"
     height="42"
     x="0"
     y="0"
     ry="4.99997" />
  <path
     fill-rule="evenodd"
     clip-rule="evenodd"
     d="m 7.4131188,4.99997 c -1.33273,0 -2.41312,1.08039 -2.41312,2.41312 v 27.17374 c 0,1.3328 1.08039,2.4132 2.41312,2.4132 H 34.586997 c 1.3327,0 2.4131,-1.0804 2.4131,-2.4132 V 7.41309 c 0,-1.33273 -1.0804,-2.41312 -2.4131,-2.41312 z M 26.258197,23.15382 c -0.5052,-0.6554 -1.1742,-1.0718 -2.007,-1.2493 0.7372,-0.2185 1.3243,-0.6076 1.7612,-1.1674 0.4506,-0.5598 0.6759,-1.2629 0.6759,-2.1094 0,-1.1469 -0.4164,-2.0549 -1.2493,-2.7239 -0.8192,-0.669 -1.9593,-1.00349 -3.4202,-1.00349 h -6.471698 v 14.37699 h 6.696998 c 1.5019,0 2.6692,-0.3482 3.5021,-1.0445 0.8465,-0.71 1.2698,-1.6657 1.2698,-2.8672 0,-0.8328 -0.2526,-1.5701 -0.7578,-2.2118 z m -4.9152,-2.4372 h -2.2938 v -3.0105 h 2.2938 c 0.5734,0 1.0103,0.1297 1.3107,0.3891 0.314,0.2594 0.4711,0.6349 0.4711,1.1264 0,0.4915 -0.1571,0.867 -0.4711,1.1264 -0.3004,0.2458 -0.7373,0.3686 -1.3107,0.3686 z m 1.6384,5.3453 c -0.314,0.2594 -0.7646,0.3891 -1.3517,0.3891 h -2.5805 v -3.1744 h 2.5395 c 0.5871,0 1.0445,0.1434 1.3722,0.4301 0.3413,0.2867 0.512,0.6827 0.512,1.1879 0,0.5051 -0.1638,0.8943 -0.4915,1.1673 z M 217.352,4.99998 c -1.332,0 -2.413,1.08039 -2.413,2.41312 v 27.17382 c 0,1.33271 1.081,2.41311 2.413,2.41311 h 27.174 c 1.333,0 2.413,-1.0804 2.413,-2.41311 V 7.4131 c 0,-1.33272 -1.08,-2.41311 -2.413,-2.41311 z m 15.572,23.27734 5.1,-14.37698 h -3.707 l -3.584,10.85438 -3.564,-10.85438 h -3.727 l 5.099,14.37698 z M 39.989597,7.4131 c 0,-1.33273 1.0804,-2.41312 2.4131,-2.41312 h 27.1739 c 1.3327,0 2.4131,1.08039 2.4131,2.41312 v 27.17382 c 0,1.3327 -1.0804,2.4131 -2.4131,2.4131 h -27.1739 c -1.3327,0 -2.4131,-1.0804 -2.4131,-2.4131 z m 22.8784,7.48723 -4.9766,9.62559 v 4.7514 h -3.5021 v -4.7514 l -4.9767,-9.62559 h 3.9732 l 2.7853,6.02109 2.7648,-6.02109 z m 14.5231,-9.90036 c -1.3327,0 -2.4131,1.08039 -2.4131,2.41312 v 27.17373 c 0,1.3328 1.0804,2.4132 2.4131,2.4132 H 104.565 c 1.333,0 2.413,-1.0804 2.413,-2.4132 V 7.41309 c 0,-1.33273 -1.08,-2.41312 -2.413,-2.41312 z m 19.117,12.70615 v -2.80579 h -11.1206 v 2.80579 h 3.8093 v 11.5712 h 3.5021 V 17.70612 Z M 109.968,7.41309 c 0,-1.33273 1.081,-2.41312 2.414,-2.41312 h 27.173 c 1.333,0 2.414,1.08039 2.414,2.41312 v 27.17373 c 0,1.3328 -1.081,2.4132 -2.414,2.4132 h -27.173 c -1.333,0 -2.414,-1.0804 -2.414,-2.4132 z m 17.031,21.00763 c -1.052,0 -1.994,-0.1707 -2.827,-0.512 -0.832,-0.3414 -1.501,-0.8466 -2.007,-1.5156 -0.491,-0.669 -0.751,-1.4745 -0.778,-2.4166 h 3.728 c 0.054,0.5325 0.238,0.9421 0.553,1.2288 0.314,0.2731 0.723,0.4096 1.228,0.4096 0.519,0 0.929,-0.1161 1.229,-0.3482 0.3,-0.2457 0.451,-0.5802 0.451,-1.0035 0,-0.355 -0.123,-0.6485 -0.369,-0.8806 -0.232,-0.2321 -0.526,-0.4233 -0.881,-0.5735 -0.341,-0.1502 -0.832,-0.3208 -1.474,-0.512 -0.929,-0.2867 -1.686,-0.5734 -2.273,-0.8601 -0.588,-0.2868 -1.093,-0.71 -1.516,-1.2698 -0.423,-0.5598 -0.635,-1.2902 -0.635,-2.1914 0,-1.338 0.485,-2.3825 1.454,-3.13341 0.97,-0.76459 2.233,-1.14688 3.789,-1.14688 1.584,0 2.86,0.38229 3.83,1.14688 0.969,0.75091 1.488,1.80221 1.556,3.15391 h -3.789 c -0.027,-0.4642 -0.197,-0.826 -0.512,-1.0854 -0.314,-0.2731 -0.716,-0.4096 -1.208,-0.4096 -0.423,0 -0.764,0.116 -1.024,0.3481 -0.259,0.2185 -0.389,0.5393 -0.389,0.9626 0,0.4642 0.218,0.826 0.655,1.0854 0.437,0.2594 1.12,0.5393 2.048,0.8397 0.929,0.314 1.68,0.6144 2.253,0.9011 0.587,0.2868 1.092,0.7032 1.516,1.2493 0.423,0.5462 0.635,1.2493 0.635,2.1095 0,0.8192 -0.212,1.5633 -0.635,2.2323 -0.41,0.669 -1.011,1.2015 -1.803,1.5974 -0.791,0.396 -1.727,0.594 -2.805,0.594 z M 147.376,4.99997 c -1.333,0 -2.413,1.08039 -2.413,2.41312 v 27.17373 c 0,1.3328 1.08,2.4132 2.413,2.4132 h 27.174 c 1.333,0 2.413,-1.0804 2.413,-2.4132 V 7.41309 c 0,-1.33273 -1.08,-2.41312 -2.413,-2.41312 z m 8.97,22.47865 c 1.133,0.628 2.375,0.9421 3.727,0.9421 1.352,0 2.587,-0.3141 3.707,-0.9421 1.12,-0.6281 2.007,-1.5019 2.662,-2.6215 0.656,-1.1332 0.983,-2.403 0.983,-3.8093 0,-1.4063 -0.327,-2.6692 -0.983,-3.7888 -0.641,-1.1195 -1.529,-1.9934 -2.662,-2.62141 -1.12,-0.62805 -2.355,-0.94208 -3.707,-0.94208 -1.352,0 -2.594,0.31403 -3.727,0.94208 -1.12,0.62801 -2.014,1.50191 -2.683,2.62141 -0.656,1.1196 -0.983,2.3825 -0.983,3.7888 0,1.4063 0.327,2.6761 0.983,3.8093 0.669,1.1196 1.563,1.9934 2.683,2.6215 z m 6.471,-3.3997 c -0.682,0.7646 -1.597,1.1469 -2.744,1.1469 -1.16,0 -2.089,-0.3755 -2.785,-1.1264 -0.683,-0.7646 -1.024,-1.7818 -1.024,-3.0516 0,-1.2834 0.341,-2.3005 1.024,-3.0515 0.696,-0.7509 1.625,-1.1264 2.785,-1.1264 1.147,0 2.062,0.3823 2.744,1.1469 0.697,0.7509 1.045,1.7613 1.045,3.031 0,1.2562 -0.348,2.2665 -1.045,3.0311 z M 179.953,7.41309 c 0,-1.33273 1.081,-2.41312 2.413,-2.41312 h 27.174 c 1.333,0 2.413,1.08039 2.413,2.41312 v 27.17373 c 0,1.3328 -1.08,2.4132 -2.413,2.4132 h -27.174 c -1.332,0 -2.413,-1.0804 -2.413,-2.4132 z m 15.653,18.16083 h 4.588 v 2.7034 h -8.09 V 13.90033 h 3.502 z"
     fill="#ffffff"
     id="path1" />
</svg>
